<?xml version="1.0" standalone="no"?>
<!DOCTYPE svg PUBLIC "-//W3C//DTD SVG 20010904//EN"
 "http://www.w3.org/TR/2001/REC-SVG-20010904/DTD/svg10.dtd">
<svg version="1.0" xmlns="http://www.w3.org/2000/svg"
 width="1400.000000pt" height="1400.000000pt" viewBox="0 0 1400.000000 1400.000000"
 preserveAspectRatio="xMidYMid meet">
<metadata>
Created by potrace 1.14, written by Peter Selinger 2001-2017
</metadata>
<g transform="translate(0.000000,1400.000000) scale(0.100000,-0.100000)"
fill="#000000" stroke="none">
<path d="M6758 10249 c-165 -17 -352 -103 -464 -214 -61 -60 -124 -169 -139
-241 l-6 -32 -107 6 c-245 11 -516 -66 -707 -202 -77 -56 -186 -170 -225 -238
-32 -57 -80 -194 -80 -232 0 -21 -6 -24 -57 -29 -147 -13 -292 -107 -382 -247
-113 -175 -116 -425 -8 -619 46 -82 157 -190 249 -240 l78 -43 3 -1701 c2
-1609 4 -1705 21 -1762 90 -297 320 -511 611 -570 72 -14 210 -15 1310 -13
1085 3 1236 5 1280 19 88 28 158 61 239 113 43 28 83 50 88 48 5 -1 7 1 4 6
-3 5 8 22 25 38 53 50 128 159 163 235 57 125 67 183 73 405 l5 201 72 11
c253 40 510 202 665 419 78 108 100 152 144 280 53 151 59 217 54 569 -4 299
-5 312 -31 404 -64 227 -205 429 -401 575 -118 89 -303 165 -462 190 l-43 7 0
189 0 190 49 59 c93 111 141 248 141 401 0 84 -28 210 -49 224 -5 3 4 29 19
57 55 102 74 196 75 363 0 111 -5 171 -19 230 -69 301 -327 569 -631 657 -70
20 -101 23 -245 22 -134 0 -177 -4 -231 -20 l-66 -20 -27 53 c-79 149 -312
325 -528 397 -142 48 -324 69 -460 55z m317 -338 c150 -36 246 -90 391 -218
l90 -79 -56 -61 c-72 -79 -116 -166 -101 -199 17 -39 56 -30 165 36 119 71
174 93 293 116 402 75 769 -171 825 -555 10 -65 9 -95 -4 -175 -9 -54 -18 -99
-20 -102 -3 -2 -21 3 -41 11 -68 28 -176 14 -198 -26 -17 -33 -1 -57 76 -113
87 -65 119 -104 147 -182 48 -133 18 -246 -95 -358 -105 -106 -212 -146 -390
-146 -170 0 -293 44 -380 137 l-28 30 45 84 c51 96 72 163 85 269 16 128 -19
310 -70 361 -11 11 -32 19 -47 19 -49 0 -59 -23 -65 -150 -6 -133 -24 -207
-72 -305 -102 -210 -389 -340 -615 -280 -188 50 -350 195 -459 413 -22 44 -37
62 -51 62 -25 0 -30 -10 -40 -80 -11 -75 3 -174 34 -252 l24 -59 -50 -47
c-128 -120 -230 -175 -363 -198 -94 -17 -178 -10 -266 21 -67 24 -170 89 -234
146 -56 52 -56 52 -37 73 105 116 136 341 52 376 -39 16 -57 5 -131 -86 -137
-168 -299 -221 -455 -150 -126 58 -184 136 -192 262 -8 128 41 236 146 322
l54 43 28 -59 c48 -101 113 -158 137 -119 4 6 8 64 8 127 1 97 6 127 27 188
80 223 265 378 546 454 108 30 305 30 413 0 135 -36 257 -111 338 -205 31 -36
75 -34 104 5 l20 27 -22 68 c-12 37 -38 93 -56 123 -33 54 -123 148 -175 182
l-25 16 19 37 c41 76 194 173 316 199 97 21 259 20 355 -3z m-1597 -2153 c177
-163 453 -240 694 -194 165 32 332 120 439 232 30 33 60 68 66 78 10 19 12 19
43 -8 98 -82 252 -128 425 -128 140 0 232 20 344 76 l71 36 20 -39 c48 -94
176 -184 330 -233 65 -20 95 -23 230 -23 113 0 171 5 213 17 l57 16 -2 -1521
-3 -1522 -29 -67 c-60 -144 -209 -262 -363 -287 -49 -9 -394 -11 -1238 -9
l-1170 3 -60 24 c-172 69 -284 198 -314 365 -8 41 -11 562 -11 1691 l0 1631
58 14 57 15 41 -55 c22 -30 68 -81 102 -112z m3405 -729 c247 -89 428 -316
467 -587 18 -122 8 -568 -15 -647 -61 -216 -202 -384 -396 -474 -79 -36 -158
-61 -193 -61 -14 0 -16 92 -16 905 l0 906 38 -7 c20 -4 72 -19 115 -35z"/>
</g>
</svg>
